<svg width="19" height="18" viewBox="0 0 19 18" fill="none" xmlns="http://www.w3.org/2000/svg">
<path d="M9.48193 0C4.51137 0 0.481934 4.02943 0.481934 9C0.481934 13.9706 4.51137 18 9.48193 18C14.4525 18 18.4819 13.9706 18.4819 9C18.4819 4.02943 14.4525 0 9.48193 0ZM9.48193 16.418C5.39164 16.418 2.06396 13.0903 2.06396 9C2.06396 4.90971 5.39164 1.58203 9.48193 1.58203C13.5722 1.58203 16.8999 4.90971 16.8999 9C16.8999 13.0903 13.5722 16.418 9.48193 16.418Z" fill="#D2D2D2"/>
<path d="M9.48193 2.63672C5.9732 2.63672 3.11865 5.49127 3.11865 9C3.11865 12.5087 5.9732 15.3633 9.48193 15.3633C12.9907 15.3633 15.8452 12.5087 15.8452 9C15.8452 5.49127 12.9907 2.63672 9.48193 2.63672ZM10.0093 9.21843L6.47396 12.7537L5.7282 12.008L8.95459 8.78157V4.21875H10.0093V9.21843Z" fill="#D2D2D2"/>
</svg>
