<svg width="185" height="57" viewBox="0 0 185 57" fill="none" xmlns="http://www.w3.org/2000/svg">
<path d="M26.825 49.2354V47.6677C27.2094 47.8239 27.6118 47.902 28.0323 47.902C28.765 47.902 29.2816 47.7158 29.5819 47.3434C29.8823 46.971 30.0324 46.3163 30.0324 45.3793V36.6758H31.8524V45.9018C31.8524 46.959 31.5641 47.8179 30.9875 48.4786C30.4228 49.1393 29.5699 49.4697 28.4287 49.4697C27.804 49.4697 27.2694 49.3916 26.825 49.2354ZM34.7832 42.1358L34.6751 40.6221C35.528 40.1056 36.5491 39.8473 37.7384 39.8473C39.0118 39.8473 39.9428 40.1776 40.5314 40.8383C41.1321 41.487 41.4324 42.37 41.4324 43.4872C41.4324 43.9437 41.4264 44.5444 41.4144 45.2892C41.4024 46.022 41.3963 46.4184 41.3963 46.4784C41.3963 47.6557 41.4324 48.5807 41.5045 49.2534H39.9728C39.9488 49.0612 39.9368 48.809 39.9368 48.4966C39.9368 48.2924 39.9488 48.0221 39.9728 47.6857H39.9368C39.2881 48.815 38.267 49.3796 36.8735 49.3796C35.9004 49.3796 35.1196 49.1273 34.5309 48.6228C33.9543 48.1182 33.666 47.4455 33.666 46.6046C33.666 45.6435 34.0804 44.9047 34.9093 44.3882C35.7502 43.8716 36.9455 43.6133 38.4952 43.6133C38.9397 43.6133 39.3722 43.6314 39.7926 43.6674V43.5953C39.7926 42.0336 39.0118 41.2528 37.4501 41.2528C36.5011 41.2528 35.6121 41.5471 34.7832 42.1358ZM39.8106 44.8747C39.5463 44.8507 39.234 44.8387 38.8736 44.8387C36.6152 44.8387 35.486 45.4273 35.486 46.6046C35.486 47.0491 35.6421 47.4034 35.9545 47.6677C36.2788 47.92 36.7053 48.0461 37.2338 48.0461C37.7504 48.0461 38.2069 47.926 38.6033 47.6857C39.0118 47.4455 39.3181 47.1151 39.5223 46.6947C39.7145 46.2982 39.8106 45.6916 39.8106 44.8747ZM43.8033 53.0375V42.7845C43.8033 41.6192 43.7732 40.7122 43.7132 40.0635H45.3529C45.401 40.5681 45.425 41.0606 45.425 41.5411H45.4611C46.1698 40.4119 47.221 39.8473 48.6145 39.8473C49.7917 39.8473 50.7408 40.2797 51.4615 41.1447C52.1943 41.9976 52.5607 43.1268 52.5607 44.5323C52.5607 45.9979 52.1943 47.1872 51.4615 48.1002C50.7288 49.0132 49.7677 49.4697 48.5784 49.4697C47.8937 49.4697 47.281 49.3075 46.7404 48.9832C46.1999 48.6588 45.7854 48.2323 45.4971 47.7038H45.4611C45.4971 48.0642 45.5151 48.821 45.5151 49.9742V53.0375H43.8033ZM48.2 41.2708C47.4432 41.2708 46.8005 41.6012 46.2719 42.2619C45.7554 42.9226 45.4971 43.7275 45.4971 44.6765C45.4971 45.6015 45.7554 46.3944 46.2719 47.0551C46.8005 47.7158 47.4432 48.0461 48.2 48.0461C48.9688 48.0461 49.5875 47.7218 50.056 47.0731C50.5365 46.4244 50.7768 45.6255 50.7768 44.6765C50.7768 43.6554 50.5426 42.8325 50.074 42.2078C49.6055 41.5831 48.9809 41.2708 48.2 41.2708ZM54.744 42.1358L54.6359 40.6221C55.4888 40.1056 56.5099 39.8473 57.6992 39.8473C58.9725 39.8473 59.9036 40.1776 60.4922 40.8383C61.0928 41.487 61.3932 42.37 61.3932 43.4872C61.3932 43.9437 61.3872 44.5444 61.3751 45.2892C61.3631 46.022 61.3571 46.4184 61.3571 46.4784C61.3571 47.6557 61.3932 48.5807 61.4652 49.2534H59.9336C59.9096 49.0612 59.8975 48.809 59.8975 48.4966C59.8975 48.2924 59.9096 48.0221 59.9336 47.6857H59.8975C59.2488 48.815 58.2277 49.3796 56.8342 49.3796C55.8612 49.3796 55.0803 49.1273 54.4917 48.6228C53.9151 48.1182 53.6268 47.4455 53.6268 46.6046C53.6268 45.6435 54.0412 44.9047 54.8701 44.3882C55.711 43.8716 56.9063 43.6133 58.456 43.6133C58.9005 43.6133 59.3329 43.6314 59.7534 43.6674V43.5953C59.7534 42.0336 58.9725 41.2528 57.4109 41.2528C56.4618 41.2528 55.5729 41.5471 54.744 42.1358ZM59.7714 44.8747C59.5071 44.8507 59.1948 44.8387 58.8344 44.8387C56.576 44.8387 55.4467 45.4273 55.4467 46.6046C55.4467 47.0491 55.6029 47.4034 55.9152 47.6677C56.2396 47.92 56.6661 48.0461 57.1946 48.0461C57.7112 48.0461 58.1677 47.926 58.5641 47.6857C58.9725 47.4455 59.2789 47.1151 59.4831 46.6947C59.6753 46.2982 59.7714 45.6916 59.7714 44.8747ZM65.4218 41.5411H65.4579C66.2027 40.4119 67.2238 39.8473 68.5212 39.8473C70.8037 39.8473 71.9449 41.2288 71.9449 43.9918V49.2534H70.233V44.7125C70.233 44.2921 70.221 43.9377 70.197 43.6494C70.173 43.3611 70.1189 43.0547 70.0348 42.7304C69.9627 42.406 69.8486 42.1478 69.6925 41.9556C69.5483 41.7633 69.3381 41.6012 69.0618 41.469C68.7975 41.3369 68.4791 41.2708 68.1067 41.2708C67.6623 41.2708 67.2418 41.3909 66.8454 41.6312C66.461 41.8715 66.1486 42.1898 65.9084 42.5862C65.6201 43.0908 65.4759 43.8476 65.4759 44.8567V49.2534H63.764V42.7845C63.764 41.6192 63.734 40.7122 63.6739 40.0635H65.3498C65.3978 40.5921 65.4218 41.0846 65.4218 41.5411ZM85.3221 47.7038V49.2534H78.1864V36.6758H85.1779V38.2075H80.0063V41.9916H84.8175V43.5052H80.0063V47.7038H85.3221ZM89.1337 41.5411H89.1697C89.9145 40.4119 90.9356 39.8473 92.233 39.8473C94.5155 39.8473 95.6567 41.2288 95.6567 43.9918V49.2534H93.9449V44.7125C93.9449 44.2921 93.9329 43.9377 93.9088 43.6494C93.8848 43.3611 93.8308 43.0547 93.7467 42.7304C93.6746 42.406 93.5605 42.1478 93.4043 41.9556C93.2601 41.7633 93.0499 41.6012 92.7736 41.469C92.5093 41.3369 92.191 41.2708 91.8186 41.2708C91.3741 41.2708 90.9536 41.3909 90.5572 41.6312C90.1728 41.8715 89.8605 42.1898 89.6202 42.5862C89.3319 43.0908 89.1877 43.8476 89.1877 44.8567V49.2534H87.4759V42.7845C87.4759 41.6192 87.4458 40.7122 87.3858 40.0635H89.0616C89.1096 40.5921 89.1337 41.0846 89.1337 41.5411ZM101.696 41.2708C100.963 41.2708 100.356 41.5952 99.8758 42.2439C99.3953 42.8806 99.155 43.6794 99.155 44.6405C99.155 45.6015 99.3833 46.3823 99.8398 46.983C100.308 47.5716 100.927 47.8659 101.696 47.8659C102.465 47.8659 103.101 47.5536 103.606 46.9289C104.11 46.3043 104.363 45.5234 104.363 44.5864C104.363 43.6494 104.11 42.8625 103.606 42.2258C103.101 41.5892 102.465 41.2708 101.696 41.2708ZM104.453 40.0635H106.038V48.875C106.038 49.4637 105.96 50.0043 105.804 50.4968C105.648 51.0013 105.402 51.4638 105.065 51.8843C104.741 52.3168 104.279 52.6531 103.678 52.8934C103.077 53.1336 102.368 53.2538 101.552 53.2538C100.302 53.2538 99.131 53.0495 98.0378 52.6411L98.218 50.9473C99.2992 51.5239 100.392 51.8122 101.498 51.8122C103.42 51.8122 104.381 50.7731 104.381 48.6948C104.381 48.1663 104.393 47.7939 104.417 47.5776H104.381C103.72 48.6948 102.723 49.2534 101.389 49.2534C100.176 49.2534 99.1911 48.839 98.4342 48.0101C97.6894 47.1692 97.317 46.064 97.317 44.6945C97.317 43.253 97.7015 42.0877 98.4703 41.1987C99.2511 40.2978 100.266 39.8473 101.516 39.8473C102.873 39.8473 103.852 40.3819 104.453 41.451H104.489C104.465 41.0666 104.453 40.6041 104.453 40.0635ZM116.079 45.0729H109.52C109.556 45.9979 109.862 46.7247 110.439 47.2533C111.016 47.7698 111.772 48.0281 112.709 48.0281C113.622 48.0281 114.517 47.7999 115.394 47.3434L115.448 48.9111C114.631 49.2835 113.682 49.4697 112.601 49.4697C111.076 49.4697 109.892 49.0372 109.051 48.1723C108.211 47.3073 107.79 46.1121 107.79 44.5864C107.79 43.1448 108.193 41.9976 108.997 41.1447C109.802 40.2797 110.859 39.8473 112.169 39.8473C113.406 39.8473 114.373 40.2317 115.07 41.0005C115.767 41.7573 116.115 42.8926 116.115 44.4062C116.115 44.5864 116.103 44.8086 116.079 45.0729ZM109.556 43.7575H114.439C114.439 42.9046 114.229 42.2559 113.809 41.8114C113.388 41.3669 112.824 41.1447 112.115 41.1447C111.43 41.1447 110.847 41.3789 110.367 41.8474C109.898 42.3159 109.628 42.9526 109.556 43.7575ZM119.515 41.5411H119.551C120.296 40.4119 121.317 39.8473 122.614 39.8473C124.897 39.8473 126.038 41.2288 126.038 43.9918V49.2534H124.326V44.7125C124.326 44.2921 124.314 43.9377 124.29 43.6494C124.266 43.3611 124.212 43.0547 124.128 42.7304C124.056 42.406 123.942 42.1478 123.785 41.9556C123.641 41.7633 123.431 41.6012 123.155 41.469C122.89 41.3369 122.572 41.2708 122.2 41.2708C121.755 41.2708 121.335 41.3909 120.938 41.6312C120.554 41.8715 120.242 42.1898 120.001 42.5862C119.713 43.0908 119.569 43.8476 119.569 44.8567V49.2534H117.857V42.7845C117.857 41.6192 117.827 40.7122 117.767 40.0635H119.443C119.491 40.5921 119.515 41.0846 119.515 41.5411ZM135.987 45.0729H129.428C129.464 45.9979 129.77 46.7247 130.347 47.2533C130.923 47.7698 131.68 48.0281 132.617 48.0281C133.53 48.0281 134.425 47.7999 135.302 47.3434L135.356 48.9111C134.539 49.2835 133.59 49.4697 132.509 49.4697C130.984 49.4697 129.8 49.0372 128.959 48.1723C128.118 47.3073 127.698 46.1121 127.698 44.5864C127.698 43.1448 128.1 41.9976 128.905 41.1447C129.71 40.2797 130.767 39.8473 132.077 39.8473C133.314 39.8473 134.281 40.2317 134.978 41.0005C135.675 41.7573 136.023 42.8926 136.023 44.4062C136.023 44.5864 136.011 44.8086 135.987 45.0729ZM129.464 43.7575H134.347C134.347 42.9046 134.137 42.2559 133.717 41.8114C133.296 41.3669 132.731 41.1447 132.023 41.1447C131.338 41.1447 130.755 41.3789 130.275 41.8474C129.806 42.3159 129.536 42.9526 129.464 43.7575ZM145.369 45.0729H138.81C138.846 45.9979 139.152 46.7247 139.729 47.2533C140.306 47.7698 141.062 48.0281 141.999 48.0281C142.912 48.0281 143.807 47.7999 144.684 47.3434L144.738 48.9111C143.922 49.2835 142.973 49.4697 141.891 49.4697C140.366 49.4697 139.182 49.0372 138.342 48.1723C137.501 47.3073 137.08 46.1121 137.08 44.5864C137.08 43.1448 137.483 41.9976 138.287 41.1447C139.092 40.2797 140.149 39.8473 141.459 39.8473C142.696 39.8473 143.663 40.2317 144.36 41.0005C145.057 41.7573 145.405 42.8926 145.405 44.4062C145.405 44.5864 145.393 44.8086 145.369 45.0729ZM138.846 43.7575H143.729C143.729 42.9046 143.519 42.2559 143.099 41.8114C142.678 41.3669 142.114 41.1447 141.405 41.1447C140.72 41.1447 140.137 41.3789 139.657 41.8474C139.188 42.3159 138.918 42.9526 138.846 43.7575ZM148.823 41.6132H148.859C149.448 40.4359 150.306 39.8473 151.436 39.8473C151.808 39.8473 152.102 39.8893 152.319 39.9734V41.5771C152.09 41.481 151.784 41.433 151.4 41.433C150.607 41.433 149.982 41.7513 149.526 42.388C149.081 43.0247 148.859 43.9257 148.859 45.0909V49.2534H147.147V42.7845C147.147 41.6192 147.117 40.7122 147.057 40.0635H148.751C148.799 40.484 148.823 41.0005 148.823 41.6132ZM155.412 36.5137V38.4057H153.502V36.5137H155.412ZM155.322 40.0635V49.2534H153.592V40.0635H155.322ZM159.492 41.5411H159.528C160.272 40.4119 161.294 39.8473 162.591 39.8473C164.873 39.8473 166.015 41.2288 166.015 43.9918V49.2534H164.303V44.7125C164.303 44.2921 164.291 43.9377 164.267 43.6494C164.243 43.3611 164.189 43.0547 164.105 42.7304C164.032 42.406 163.918 42.1478 163.762 41.9556C163.618 41.7633 163.408 41.6012 163.132 41.469C162.867 41.3369 162.549 41.2708 162.176 41.2708C161.732 41.2708 161.312 41.3909 160.915 41.6312C160.531 41.8715 160.218 42.1898 159.978 42.5862C159.69 43.0908 159.546 43.8476 159.546 44.8567V49.2534H157.834V42.7845C157.834 41.6192 157.804 40.7122 157.744 40.0635H159.419C159.468 40.5921 159.492 41.0846 159.492 41.5411ZM172.054 41.2708C171.321 41.2708 170.714 41.5952 170.234 42.2439C169.753 42.8806 169.513 43.6794 169.513 44.6405C169.513 45.6015 169.741 46.3823 170.198 46.983C170.666 47.5716 171.285 47.8659 172.054 47.8659C172.822 47.8659 173.459 47.5536 173.964 46.9289C174.468 46.3043 174.72 45.5234 174.72 44.5864C174.72 43.6494 174.468 42.8625 173.964 42.2258C173.459 41.5892 172.822 41.2708 172.054 41.2708ZM174.811 40.0635H176.396V48.875C176.396 49.4637 176.318 50.0043 176.162 50.4968C176.006 51.0013 175.76 51.4638 175.423 51.8843C175.099 52.3168 174.636 52.6531 174.036 52.8934C173.435 53.1336 172.726 53.2538 171.909 53.2538C170.66 53.2538 169.489 53.0495 168.396 52.6411L168.576 50.9473C169.657 51.5239 170.75 51.8122 171.855 51.8122C173.777 51.8122 174.738 50.7731 174.738 48.6948C174.738 48.1663 174.75 47.7939 174.775 47.5776H174.738C174.078 48.6948 173.081 49.2534 171.747 49.2534C170.534 49.2534 169.549 48.839 168.792 48.0101C168.047 47.1692 167.675 46.064 167.675 44.6945C167.675 43.253 168.059 42.0877 168.828 41.1987C169.609 40.2978 170.624 39.8473 171.873 39.8473C173.231 39.8473 174.21 40.3819 174.811 41.451H174.847C174.823 41.0666 174.811 40.6041 174.811 40.0635Z" fill="#007749"/>
<g filter="url(#filter0_f)">
<path d="M21.223 38.4419H1.20129V50.4549H21.223V38.4419Z" fill="#BEBEBE"/>
</g>
<path d="M21.223 37.2402H1.20129V49.2532H21.223V37.2402Z" fill="white"/>
<path d="M10.2109 47.2508C12.4224 47.2508 14.2152 45.458 14.2152 43.2465C14.2152 41.035 12.4224 39.2422 10.2109 39.2422C7.99934 39.2422 6.20654 41.035 6.20654 43.2465C6.20654 45.458 7.99934 47.2508 10.2109 47.2508Z" fill="#E30613"/>
<path d="M118.379 0C107.341 0 102.604 0 98.9799 13.427C95.2318 27.3896 99.9684 27.3896 111.048 27.3896C122.086 27.3896 126.822 27.3896 130.57 13.427C134.154 0 128.882 0 118.379 0ZM121.592 13.5506C119.78 20.2642 118.214 20.2642 112.942 20.2642C107.67 20.2642 106.105 20.2642 107.876 13.5506C109.606 7.08423 111.171 7.08423 116.443 7.08423C121.716 7.08423 123.322 7.08423 121.592 13.5506Z" fill="#007749"/>
<path d="M52.7677 26.813H42.2238L46.8779 9.47314H57.4219L52.7677 26.813Z" fill="#007749"/>
<path d="M46.8782 9.47331L49.3082 0.535645H59.8111L46.8782 9.47331Z" fill="#007749"/>
<path d="M33.4922 0.535645L31.1034 9.4733H16.3583L18.7471 0.535645H8.24433L1.20129 26.8132H11.7041L14.093 17.8755H28.838L26.4492 26.8132H36.9931L44.0362 0.535645H33.4922Z" fill="#007749"/>
<path d="M176.701 26.8132H166.198L173.242 0.535645H183.743L176.701 26.8132Z" fill="#007749"/>
<path d="M100.875 0.535645H89.3012C88.2304 0.535645 87.5301 1.07108 86.8299 1.60652L77.0274 8.97906L79.2927 0.535645H68.7487L61.7057 26.8544H72.2496L74.968 16.7635L83.3703 25.7835C83.8645 26.319 84.3587 26.8544 85.3883 26.8544H96.962L84.1528 13.0979L100.875 0.535645Z" fill="#007749"/>
<path d="M169.534 0.535645H157.96C156.89 0.535645 156.189 1.07108 155.531 1.60652L145.728 8.97906L147.993 0.535645H137.449L130.406 26.8544H140.95L143.668 16.7635L152.071 25.7835C152.565 26.319 153.059 26.8544 154.089 26.8544H165.663L152.853 13.0979L169.534 0.535645Z" fill="#007749"/>
<defs>
<filter id="filter0_f" x="-4.76837e-06" y="37.2406" width="22.4243" height="14.4156" filterUnits="userSpaceOnUse" color-interpolation-filters="sRGB">
<feFlood flood-opacity="0" result="BackgroundImageFix"/>
<feBlend mode="normal" in="SourceGraphic" in2="BackgroundImageFix" result="shape"/>
<feGaussianBlur stdDeviation="0.600649" result="effect1_foregroundBlur"/>
</filter>
</defs>
</svg>
