<?xml version="1.0" encoding="utf-8"?><svg xmlns="http://www.w3.org/2000/svg" xmlns:xlink="http://www.w3.org/1999/xlink"><symbol viewBox="0 0 18 19" id="6-dots" xmlns="http://www.w3.org/2000/svg"><path d="M7.5.283h10v3.13h-10zm0 7.435h10v3.13h-10zm0 7.434h10v3.13h-10zm-7.5 0h3v3.13H0zm0-7.434h3v3.13H0zM0 .283h3v3.13H0z"/></symbol><symbol viewBox="0 0 18 19" id="9-dots" xmlns="http://www.w3.org/2000/svg"><path d="M0 .283h3v3.13H0zm7.5 0h3v3.13h-3zm7.5 0h3v3.13h-3zM0 7.718h3v3.13H0zm7.5 0h3v3.13h-3zm7.5 0h3v3.13h-3zM0 15.152h3v3.13H0zm7.5 0h3v3.13h-3zm7.5 0h3v3.13h-3z"/></symbol><symbol viewBox="0 0 8 14" id="angle-left" xmlns="http://www.w3.org/2000/svg"><path d="M6.938 13.112.94 7.152 6.938 1.19"/></symbol><symbol viewBox="0 0 16 18" id="bars" xmlns="http://www.w3.org/2000/svg"><path d="M12.5.5h3v17h-3zm-6 5h3v12h-3zm-6 4h3v8h-3z"/></symbol><symbol viewBox="0 0 30 41" id="blank" xmlns="http://www.w3.org/2000/svg"><path d="M.21.117v40h19.783l9.28-9.28V.117H.211Zm20.47 36v-4.594h4.593l-4.593 4.593Zm6.25-6.937h-8.594v8.593H2.555V2.461H26.93V29.18Z"/><path d="M4.898 4.805v22.03h19.688V4.806H4.898Zm12.657 19.687H7.242V11.836h10.313v12.656Zm4.687 0h-2.344V11.836h2.344v12.656Zm0-15h-15V7.148h15v2.344Zm-6.25 19.688H4.898v2.343h11.094V29.18Z"/></symbol><symbol viewBox="0 0 31 18" id="car" xmlns="http://www.w3.org/2000/svg"><path d="M12.045 12.569c-1.384 0-2.503 1.167-2.503 2.606 0 1.435 1.119 2.603 2.503 2.603 1.384 0 2.503-1.168 2.503-2.603 0-1.439-1.119-2.606-2.503-2.606Zm0 3.908c-.692 0-1.252-.586-1.252-1.302 0-.72.56-1.301 1.252-1.301s1.251.582 1.251 1.301c0 .716-.559 1.302-1.251 1.302Zm18.877-5.834v2.78c0 .692-.54 1.254-1.208 1.254h-1.291c-.234-1.665-1.614-2.945-3.28-2.945-1.662 0-3.042 1.28-3.275 2.945H15.32c-.233-1.665-1.613-2.945-3.275-2.945s-3.042 1.28-3.276 2.945H7.153c-.667 0-1.207-.561-1.207-1.255v-2.779h24.976Zm-5.776 1.926c-1.384 0-2.506 1.167-2.506 2.606 0 1.435 1.122 2.603 2.506 2.603 1.38 0 2.503-1.168 2.503-2.603 0-1.439-1.122-2.606-2.503-2.606Zm0 3.908c-.692 0-1.25-.586-1.25-1.302 0-.72.558-1.301 1.25-1.301.689 0 1.252.582 1.252 1.301 0 .716-.563 1.302-1.252 1.302Zm5.3-8.632-4.744-4.88a1.582 1.582 0 0 0-1.13-.484h-2.395v-.934c0-.694-.54-1.255-1.207-1.255H7.152c-.664 0-1.207.561-1.207 1.255v.197l-4.899.587 8.68 1.176-8.792.908L9.695 5.71.934 6.5l5.011.983V9.95H30.92v-.916c0-.448-.173-.874-.475-1.188Zm-2.068.163h-4.591a.193.193 0 0 1-.19-.197V4.125c0-.109.085-.197.19-.197h.873a.2.2 0 0 1 .133.055l3.713 3.686c.125.121.04.339-.128.339Z"/></symbol><symbol viewBox="0 0 42 31" id="card" xmlns="http://www.w3.org/2000/svg"><path d="M0 .059v30h41.483v-30H0Zm39.052 2.43v2.435H2.431V2.489h36.621Zm0 4.865V9.79H2.431V7.354h36.621ZM2.431 27.628V12.22h36.621v15.408H2.431Z"/><path d="M32.563 17.087a4.07 4.07 0 0 0-2.432.814 4.032 4.032 0 0 0-2.433-.814 4.058 4.058 0 0 0-4.053 4.053 4.058 4.058 0 0 0 4.053 4.053 4.03 4.03 0 0 0 2.433-.814 4.069 4.069 0 0 0 2.432.814 4.058 4.058 0 0 0 4.053-4.053 4.058 4.058 0 0 0-4.053-4.053Zm-4.865 5.676a1.625 1.625 0 0 1-1.623-1.623c0-.895.728-1.623 1.623-1.623s1.623.728 1.623 1.623-.728 1.623-1.623 1.623Zm4.865 0c-.378 0-.733-.129-1.016-.357a4.036 4.036 0 0 0 0-2.532 1.625 1.625 0 0 1 2.638 1.267c0 .894-.727 1.622-1.622 1.622Zm-27.703 0h11.014v2.43H4.86v-2.43Zm0-4.865h11.014v2.43H4.86v-2.43Z"/></symbol><symbol viewBox="0 0 24 21" id="cart" xmlns="http://www.w3.org/2000/svg"><path d="M23 8h-4l-4-7c-.156-.226-.773-.155-1 0l-1 1c-.228.155-.156-.226 0 0l4 6H7l4-6c.156-.226.228.155 0 0l-1-1C9.772.845 9.156.774 9 1L5 8H1c-.276 0-1 .726-1 1s.724 1 1 1l3 10c.266.828 1.125 1 2 1h12c.875 0 1.734-.172 2-1l3-10c.276 0 1-.726 1-1s-.724-1-1-1Z"/></symbol><symbol viewBox="0 0 14 8" id="chevron-down" xmlns="http://www.w3.org/2000/svg"><path d="m.731 1 6 6 6-6"/></symbol><symbol viewBox="0 0 11 18" id="chevron-left" xmlns="http://www.w3.org/2000/svg"><path d="M10 17 2 9l8-8"/></symbol><symbol viewBox="0 0 11 18" id="chevron-right" xmlns="http://www.w3.org/2000/svg"><path d="m1 1 8 8-8 8"/></symbol><symbol viewBox="0 0 41 40" id="coins" xmlns="http://www.w3.org/2000/svg"><g clip-path="url(#la)"><path d="M24.378 7.597V4.483c0-5.978-23.636-5.978-23.636 0v18.214c0 2.35 3.679 3.815 8.104 4.336-1.618.726-2.65 1.706-2.65 2.95v5.463c0 2.99 5.946 4.554 11.819 4.554 5.873 0 11.818-1.565 11.818-4.554V32.7c5.562-.153 10.91-1.703 10.91-4.538V11.769c0-3.774-9.418-5.163-16.365-4.172ZM12.56 1.817c6.47 0 10 1.802 10 2.728 0 .926-3.53 2.727-10 2.727-6.47 0-10-1.8-10-2.727 0-.926 3.53-2.727 10-2.727Zm-10 5.258c2.206 1.328 6.114 2.016 10 2.016 3.887 0 7.794-.688 10-2.016v.903c-3.159.701-5.454 1.98-5.454 3.84v.538a28.844 28.844 0 0 1-4.546.371c-6.47 0-10-1.801-10-2.727V7.075Zm16.364 18.182c.173.104.353.205.546.301a35.312 35.312 0 0 0-.546-.02v-.281ZM2.56 12.53c2.206 1.327 6.114 2.015 10 2.015a30.81 30.81 0 0 0 4.546-.357v4.531a28.832 28.832 0 0 1-4.546.372c-6.47 0-10-1.802-10-2.728V12.53Zm0 10.197v-3.834c2.206 1.328 6.114 2.016 10 2.016 1.574 0 3.104-.141 4.546-.357v4.531a28.832 28.832 0 0 1-4.546.371c-6.47 0-10-1.801-10-2.727Zm25.455 12.727c0 .926-3.53 2.728-10 2.728-6.47 0-10-1.802-10-2.728V32.53c2.206 1.328 6.113 2.016 10 2.016 3.72 0 7.465-.629 9.713-1.847.095.004.192.004.287.007v2.75Zm-10-2.727c-6.47 0-10-1.801-10-2.727 0-.926 3.53-2.727 10-2.727 6.47 0 10 1.8 10 2.727 0 .926-3.53 2.727-10 2.727Zm20.909-4.545c0 .88-3.221 2.532-9.09 2.695V30c0-1.136-.86-2.054-2.247-2.758.445.018.89.03 1.337.03 3.887 0 7.794-.688 10-2.015v2.925Zm0-5.455c0 .926-3.53 2.727-10 2.727-6.47 0-10-1.8-10-2.727v-2.925c2.206 1.328 6.113 2.016 10 2.016 3.887 0 7.794-.688 10-2.016v2.925Zm0-5.454c0 .925-3.53 2.727-10 2.727-6.47 0-10-1.802-10-2.727v-2.925c2.206 1.327 6.113 2.015 10 2.015 3.887 0 7.794-.688 10-2.015v2.925Zm-10-2.728c-6.47 0-10-1.801-10-2.727 0-.926 3.53-2.727 10-2.727 6.47 0 10 1.801 10 2.727 0 .926-3.53 2.727-10 2.727Z"/></g><defs><clipPath id="la"><path d="M.742 0h40v40h-40z"/></clipPath></defs></symbol><symbol viewBox="0 0 22 22" id="cross" xmlns="http://www.w3.org/2000/svg"><path d="m1 1 20 20M1 21 21 1"/></symbol><symbol viewBox="0 0 19 12" id="enter" xmlns="http://www.w3.org/2000/svg"><path d="M18 8.035v.5h.5v-.5H18ZM.646 7.681a.5.5 0 0 0 0 .708l3.182 3.182a.5.5 0 0 0 .708-.707l-2.829-2.83 2.829-2.828a.5.5 0 1 0-.708-.707L.646 7.68ZM17.5.035v8h1v-8h-1Zm.5 7.5H1v1h17v-1Z"/></symbol><symbol viewBox="0 0 15 15" id="exit" xmlns="http://www.w3.org/2000/svg"><path d="m4 11 1-1-1-2H3h8V6H3h1l1-2-1-1-4 4 4 4Z"/><path d="M6 0H4v3h2V2h7v11H6v-1H4v3h11V0H6Z"/></symbol><symbol viewBox="0 0 30 25" id="filter-bar-icon" xmlns="http://www.w3.org/2000/svg"><path d="M0 3h30M0 12h30M0 22h30M4.5.5h5v5h-5zm17.5 9h5v5h-5zm-11 10h5v5h-5z"/></symbol><symbol viewBox="0 0 18 17" id="heart" xmlns="http://www.w3.org/2000/svg"><path d="M8.602 3.533 9 4.055l.398-.522a8.736 8.736 0 0 1 1.564-1.6c.702-.54 1.507-.933 2.35-.933C15.566 1 17.5 3.093 17.5 5.797c0 1.22-.405 2.377-1.133 3.268l-.031.038-.014.027-.005.005a2.596 2.596 0 0 1-.154.155l-.005.005-.074.071-.005.006L9 16.448 2.165 9.626l-.03-.051-.056-.052C1.08 8.607.5 7.26.5 5.797.5 3.093 2.435 1 4.687 1c.844 0 1.65.394 2.35.933a8.713 8.713 0 0 1 1.565 1.6Z"/></symbol><symbol viewBox="0 0 22 22" id="house" xmlns="http://www.w3.org/2000/svg"><path d="M22 10.035c.398-.432.446-.615 0-1l-10-9c-.447-.385-1.563-.395-2 0l-10 9c-.437.395-.411 1.579 0 2h1c.41.421.593.36 1 0l1-1v10c0 .585.407 1 1 1h4c.592 0 1-.415 1-1v-7h5v7c-.009.584.407 1 1 1h4c.592 0 1-.415 1-1v-9s-.252-.218 0 0c.25.217.6.433 1 0l1-1Z"/></symbol><symbol viewBox="0 0 12 20" id="location" xmlns="http://www.w3.org/2000/svg"><path d="M5.866.231C2.63.231 0 3.181 0 6.808c0 4.559 5.871 12.345 5.871 12.345s5.86-8.01 5.86-12.345c0-3.626-2.63-6.577-5.865-6.577Zm1.77 8.503c-.489.547-1.13.82-1.77.82-.641 0-1.282-.273-1.77-.82-.976-1.094-.976-2.874 0-3.969.473-.53 1.101-.822 1.77-.822.668 0 1.297.292 1.77.822.975 1.095.975 2.875 0 3.97Z"/></symbol><symbol viewBox="0 0 23 24" id="plane" xmlns="http://www.w3.org/2000/svg"><path d="M23 12.035c0-.968-1.08-2-2-2h-6l-6-10H7l3 10H3l-1-3H0l1 5-1 4h2l1-3h7l-3 10h2l6-10h6c.92 0 2-.031 2-1Z"/></symbol><symbol viewBox="0 0 24 24" id="plus" xmlns="http://www.w3.org/2000/svg"><path d="M12 1v22M1 12h22"/></symbol><symbol viewBox="0 0 17 16" id="tel" xmlns="http://www.w3.org/2000/svg"><path d="M15.448 10.502c-.98 0-1.942-.153-2.853-.454-.447-.153-.996-.013-1.269.267l-1.799 1.358c-2.086-1.114-3.371-2.398-4.47-4.469l1.319-1.752c.342-.342.465-.842.318-1.31a9.098 9.098 0 0 1-.457-2.858C6.237.576 5.662 0 4.954 0H2.015C1.307 0 .731.576.731 1.284.731 9.398 7.333 16 15.448 16c.707 0 1.284-.576 1.284-1.284v-2.93c0-.708-.576-1.284-1.284-1.284Z"/></symbol><symbol viewBox="0 0 24 25" id="user" xmlns="http://www.w3.org/2000/svg"><path d="M24 12.959c0-6.617-5.383-12-12-12s-12 5.383-12 12a11.97 11.97 0 0 0 3.895 8.84l-.011.01.389.328c.025.02.053.038.078.06a12.043 12.043 0 0 0 .853.643c.233.16.472.313.716.457.053.032.107.062.16.093.268.152.541.296.821.427l.062.028c.912.424 1.885.735 2.902.919l.08.014c.316.055.636.099.96.128l.118.009c.322.027.647.044.977.044.327 0 .65-.017.97-.043l.121-.01c.321-.029.638-.071.95-.125l.082-.014a11.892 11.892 0 0 0 2.862-.897l.1-.046a12.104 12.104 0 0 0 1.671-.955c.08-.055.16-.113.24-.17.191-.138.38-.28.562-.43.04-.032.084-.06.124-.094l.4-.334-.012-.01A11.969 11.969 0 0 0 24 12.96Zm-23.127 0C.873 6.823 5.864 1.83 12 1.83c6.136 0 11.127 4.992 11.127 11.128a11.1 11.1 0 0 1-3.748 8.318 3.257 3.257 0 0 0-.39-.234l-3.694-1.848a.967.967 0 0 1-.538-.87v-1.29c.086-.105.176-.225.27-.356a8.89 8.89 0 0 0 1.141-2.236c.553-.262.91-.813.91-1.435V11.46c0-.378-.139-.745-.387-1.033V8.39c.023-.227.103-1.505-.822-2.559C15.065 4.914 13.763 4.45 12 4.45c-1.763 0-3.065.465-3.87 1.383-.924 1.054-.844 2.333-.82 2.559v2.036a1.59 1.59 0 0 0-.388 1.034v1.547c0 .48.216.928.585 1.23a8.199 8.199 0 0 0 1.35 2.789v1.263a.973.973 0 0 1-.508.854L4.9 21.026c-.11.06-.219.13-.328.208a11.1 11.1 0 0 1-3.698-8.276Z"/></symbol><symbol viewBox="0 0 20 20" id="zoom" xmlns="http://www.w3.org/2000/svg"><path d="M14.677 12.91a8.071 8.071 0 0 0 1.573-4.785C16.25 3.645 12.605 0 8.125 0S0 3.645 0 8.125s3.645 8.125 8.125 8.125c1.79 0 3.44-.589 4.785-1.573L18.233 20 20 18.232l-5.323-5.322Zm-6.552.84A5.631 5.631 0 0 1 2.5 8.125 5.631 5.631 0 0 1 8.125 2.5a5.631 5.631 0 0 1 5.625 5.625 5.631 5.631 0 0 1-5.625 5.625Z"/></symbol></svg>