<?xml version="1.0" encoding="utf-8"?><svg xmlns="http://www.w3.org/2000/svg" xmlns:xlink="http://www.w3.org/1999/xlink"><symbol viewBox="0 0 18 19" id="6-dots" xmlns="http://www.w3.org/2000/svg"><path d="M7.5.283h10v3.13h-10zm0 7.435h10v3.13h-10zm0 7.434h10v3.13h-10zm-7.5 0h3v3.13H0zm0-7.434h3v3.13H0zM0 .283h3v3.13H0z"/></symbol><symbol viewBox="0 0 18 19" id="9-dots" xmlns="http://www.w3.org/2000/svg"><path d="M0 .283h3v3.13H0zm7.5 0h3v3.13h-3zm7.5 0h3v3.13h-3zM0 7.718h3v3.13H0zm7.5 0h3v3.13h-3zm7.5 0h3v3.13h-3zM0 15.152h3v3.13H0zm7.5 0h3v3.13h-3zm7.5 0h3v3.13h-3z"/></symbol><symbol viewBox="0 0 8 14" id="angle-left" xmlns="http://www.w3.org/2000/svg"><path d="M6.938 13.112L.94 7.152 6.938 1.19"/></symbol><symbol viewBox="0 0 16 18" id="bars" xmlns="http://www.w3.org/2000/svg"><path d="M12.5.5h3v17h-3zm-6 5h3v12h-3zm-6 4h3v8h-3z"/></symbol><symbol viewBox="0 0 24 21" id="cart" xmlns="http://www.w3.org/2000/svg"><path d="M23 8h-4l-4-7c-.156-.226-.773-.155-1 0l-1 1c-.228.155-.156-.226 0 0l4 6H7l4-6c.156-.226.228.155 0 0l-1-1C9.772.845 9.156.774 9 1L5 8H1c-.276 0-1 .726-1 1s.724 1 1 1l3 10c.266.828 1.125 1 2 1h12c.875 0 1.734-.172 2-1l3-10c.276 0 1-.726 1-1s-.724-1-1-1z"/></symbol><symbol viewBox="0 0 14 8" id="chevron-down" xmlns="http://www.w3.org/2000/svg"><path d="M.731 1l6 6 6-6"/></symbol><symbol viewBox="0 0 11 18" id="chevron-left" xmlns="http://www.w3.org/2000/svg"><path d="M10 17L2 9l8-8"/></symbol><symbol viewBox="0 0 11 18" id="chevron-right" xmlns="http://www.w3.org/2000/svg"><path d="M1 1l8 8-8 8"/></symbol><symbol viewBox="0 0 22 22" id="cross" xmlns="http://www.w3.org/2000/svg"><path d="M1 1l20 20M1 21L21 1"/></symbol><symbol viewBox="0 0 15 15" id="exit" xmlns="http://www.w3.org/2000/svg"><path d="M4 11l1-1-1-2H3h8V6H3h1l1-2-1-1-4 4 4 4z"/><path d="M6 0H4v3h2V2h7v11H6v-1H4v3h11V0H6z"/></symbol><symbol viewBox="0 0 30 25" id="filter-bar-icon" xmlns="http://www.w3.org/2000/svg"><path d="M0 3h30M0 12h30M0 22h30M4.5.5h5v5h-5zm17.5 9h5v5h-5zm-11 10h5v5h-5z"/></symbol><symbol viewBox="0 0 18 17" id="heart" xmlns="http://www.w3.org/2000/svg"><path d="M8.602 3.533L9 4.055l.398-.522a8.736 8.736 0 011.564-1.6c.702-.54 1.507-.933 2.35-.933C15.566 1 17.5 3.093 17.5 5.797c0 1.22-.405 2.377-1.133 3.268l-.031.038-.014.027-.005.005a2.596 2.596 0 01-.154.155l-.005.005-.074.071-.005.006L9 16.448 2.165 9.626l-.03-.051-.056-.052C1.08 8.607.5 7.26.5 5.797.5 3.093 2.435 1 4.687 1c.844 0 1.65.394 2.35.933a8.713 8.713 0 011.565 1.6z"/></symbol><symbol viewBox="0 0 12 20" id="location" xmlns="http://www.w3.org/2000/svg"><path d="M5.866.231C2.63.231 0 3.181 0 6.808c0 4.559 5.871 12.345 5.871 12.345s5.86-8.01 5.86-12.345c0-3.626-2.63-6.577-5.865-6.577zm1.77 8.503c-.489.547-1.13.82-1.77.82-.641 0-1.282-.273-1.77-.82-.976-1.094-.976-2.874 0-3.969.473-.53 1.101-.822 1.77-.822.668 0 1.297.292 1.77.822.975 1.095.975 2.875 0 3.97z"/></symbol><symbol viewBox="0 0 24 24" id="plus" xmlns="http://www.w3.org/2000/svg"><path d="M12 1v22M1 12h22"/></symbol><symbol viewBox="0 0 17 16" id="tel" xmlns="http://www.w3.org/2000/svg"><path d="M15.448 10.502c-.98 0-1.942-.153-2.853-.454-.447-.153-.996-.013-1.269.267l-1.799 1.358c-2.086-1.114-3.371-2.398-4.47-4.469l1.319-1.752c.342-.342.465-.842.318-1.31a9.098 9.098 0 01-.457-2.858C6.237.576 5.662 0 4.954 0H2.015C1.307 0 .731.576.731 1.284.731 9.398 7.333 16 15.448 16c.707 0 1.284-.576 1.284-1.284v-2.93c0-.708-.576-1.284-1.284-1.284z"/></symbol><symbol viewBox="0 0 24 25" id="user" xmlns="http://www.w3.org/2000/svg"><path d="M24 12.959c0-6.617-5.383-12-12-12s-12 5.383-12 12a11.97 11.97 0 003.895 8.84l-.011.01.389.328c.025.02.053.038.078.06a12.043 12.043 0 00.853.643c.233.16.472.313.716.457.053.032.107.062.16.093.268.152.541.296.821.427l.062.028c.912.424 1.885.735 2.902.919l.08.014c.316.055.636.099.96.128l.118.009c.322.027.647.044.977.044.327 0 .65-.017.97-.043l.121-.01c.321-.029.638-.071.95-.125l.082-.014a11.892 11.892 0 002.862-.897l.1-.046a12.104 12.104 0 001.671-.955c.08-.055.16-.113.24-.17.191-.138.38-.28.562-.43.04-.032.084-.06.124-.094l.4-.334-.012-.01A11.969 11.969 0 0024 12.96zm-23.127 0C.873 6.823 5.864 1.83 12 1.83c6.136 0 11.127 4.992 11.127 11.128a11.1 11.1 0 01-3.748 8.318 3.257 3.257 0 00-.39-.234l-3.694-1.848a.967.967 0 01-.538-.87v-1.29c.086-.105.176-.225.27-.356a8.89 8.89 0 001.141-2.236c.553-.262.91-.813.91-1.435V11.46c0-.378-.139-.745-.387-1.033V8.39c.023-.227.103-1.505-.822-2.559C15.065 4.914 13.763 4.45 12 4.45c-1.763 0-3.065.465-3.87 1.383-.924 1.054-.844 2.333-.82 2.559v2.036a1.59 1.59 0 00-.388 1.034v1.547c0 .48.216.928.585 1.23a8.199 8.199 0 001.35 2.789v1.263a.973.973 0 01-.508.854L4.9 21.026c-.11.06-.219.13-.328.208a11.1 11.1 0 01-3.698-8.276z"/></symbol><symbol viewBox="0 0 20 20" id="zoom" xmlns="http://www.w3.org/2000/svg"><path d="M14.677 12.91a8.071 8.071 0 001.573-4.785C16.25 3.645 12.605 0 8.125 0S0 3.645 0 8.125s3.645 8.125 8.125 8.125c1.79 0 3.44-.589 4.785-1.573L18.233 20 20 18.232l-5.323-5.322zm-6.552.84A5.631 5.631 0 012.5 8.125 5.631 5.631 0 018.125 2.5a5.631 5.631 0 015.625 5.625 5.631 5.631 0 01-5.625 5.625z"/></symbol></svg>