<svg width="24" height="21" viewBox="0 0 24 21" fill="none" xmlns="http://www.w3.org/2000/svg">
<path d="M23 8H19L15 1C14.8436 0.774109 14.2275 0.844752 14 1L13 2C12.7724 2.15529 12.8436 1.77406 13 2L17 8H7L11 2C11.1564 1.77406 11.2276 2.15529 11 2L10 1C9.77247 0.844752 9.15637 0.774109 9 1L5 8H1C0.72386 8 0 8.7258 0 9C0 9.27415 0.72386 10 1 10L4 20C4.26564 20.8275 5.1255 21 6 21H18C18.8745 21 19.7344 20.828 20 20L23 10C23.2761 10 24 9.27415 24 9C24 8.7258 23.2761 8 23 8Z" fill="white"/>
</svg>
