<svg width="12" height="20" viewBox="0 0 12 20" fill="none" xmlns="http://www.w3.org/2000/svg">
<path d="M5.86566 0.231461C2.63136 0.231461 0 3.18189 0 6.80837C0 11.3665 5.87143 19.1526 5.87143 19.1526C5.87143 19.1526 11.7313 11.1423 11.7313 6.80837C11.7313 3.18189 9.10007 0.231461 5.86566 0.231461ZM7.63545 8.7341C7.14746 9.28115 6.50661 9.55474 5.86566 9.55474C5.22482 9.55474 4.58376 9.28115 4.09597 8.7341C3.12008 7.63999 3.12008 5.85966 4.09597 4.76543C4.56852 4.23535 5.19711 3.9434 5.86566 3.9434C6.53421 3.9434 7.1627 4.23547 7.63545 4.76543C8.61135 5.85966 8.61135 7.63999 7.63545 8.7341Z" fill="#D2D2D2"/>
</svg>
