<svg width="17" height="16" viewBox="0 0 17 16" fill="none" xmlns="http://www.w3.org/2000/svg">
<path d="M15.4476 10.5022C14.468 10.5022 13.5062 10.349 12.5947 10.0478C12.1481 9.89542 11.5991 10.0352 11.3265 10.3151L9.52745 11.6732C7.44107 10.5595 6.1559 9.27475 5.0574 7.20404L6.37553 5.45188C6.71799 5.10988 6.84082 4.61029 6.69365 4.14154C6.39115 3.22529 6.23749 2.26392 6.23749 1.28392C6.23753 0.575958 5.66157 0 4.95365 0H2.01532C1.3074 0 0.731445 0.575958 0.731445 1.28387C0.731445 9.39846 7.33303 16 15.4476 16C16.1555 16 16.7315 15.424 16.7315 14.7161V11.786C16.7314 11.0781 16.1555 10.5022 15.4476 10.5022Z" fill="#D2D2D2"/>
</svg>
